# xmcd
# 
# Track frame offsets:
#     182
#     13420
#     30205
#     45307
#     56267
#     67735
#     79995
#     97015
#     108792
#     119725
#     135175
#     149685
# 
# Disc length: 2267
# 
# Revision: 21
# Processed by: cddbd v1.5.2PL0 Copyright (c) Steve Scherf et al.
# Submitted via: fre:ac v1.0.31
# 
DISCID=9808d90c
DTITLE=Have A Nice Day - Have A Nice Day Vol. 16
DYEAR=1993
DGENRE=Rock/Pop
TTITLE0=Ides Of March - Vehicle
TTITLE1=Blues Image - Ride Captain Ride
TTITLE2=Ferrante And Teicher - Midnight Cowboy
TTITLE3=Tin Tin - Toast And Marmalade For Tea
TTITLE4=Assembled Multitude - Overture From Tommy (A Rock Opera)
TTITLE5=Delaney And Bonnie And Friends - Never Ending Song Of Love
TTITLE6=Ten Years After - I'd Love To Change The World
TTITLE7=Robert John - The Lion Sleeps Tonight
TTITLE8=New Seekers - I'd Like To Teach The World To Sing (In Perfect Harmony)
TTITLE9=Wayne Newton - Daddy Don't You Walk So Fast
TTITLE10=Flash - Small Beginnings
TTITLE11=Arlo Guthrie - City Of New Orleans
EXTD=YEAR: 1990
EXTT0=
EXTT1=
EXTT2=
EXTT3=
EXTT4=
EXTT5=
EXTT6=
EXTT7=
EXTT8=
EXTT9=
EXTT10=
EXTT11=
PLAYORDER=
